<svg xmlns="http://www.w3.org/2000/svg" version="1.1" xmlns:xlink="http://www.w3.org/1999/xlink" xmlns:svgjs="http://svgjs.dev/svgjs" width="1440" height="560" preserveAspectRatio="none" viewBox="0 0 1440 560"><g mask="url(&quot;#SvgjsMask1018&quot;)" fill="none"><rect width="1440" height="560" x="0" y="0" fill="rgba(90, 34, 117, 1)"></rect><path d="M282.7 96.71L365.84 144.71L365.84 240.71L282.7 288.71L199.56 240.71L199.56 144.71zM199.56 240.71L282.7 288.71L282.7 384.71L199.56 432.71L116.42 384.71L116.42 288.71zM448.98 384.71L532.12 432.71L532.12 528.71L448.98 576.71L365.84 528.71L365.84 432.71zM365.84 528.71L448.98 576.71L448.98 672.71L365.84 720.71L282.7 672.71L282.7 576.71zM698.41 -47.29L781.55 0.71L781.55 96.71L698.41 144.71L615.27 96.71L615.27 0.71zM781.55 96.71L864.69 144.71L864.69 240.71L781.55 288.71L698.41 240.71L698.41 144.71zM1030.97 -47.29L1114.11 0.71L1114.11 96.71L1030.97 144.71L947.83 96.71L947.83 0.71zM1114.11 384.71L1197.25 432.71L1197.25 528.71L1114.11 576.71L1030.97 528.71L1030.97 432.71zM1197.25 240.71L1280.39 288.71L1280.39 384.71L1197.25 432.71L1114.11 384.71L1114.11 288.71zM1280.39 384.71L1363.53 432.71L1363.53 528.71L1280.39 576.71L1197.25 528.71L1197.25 432.71zM1197.25 528.71L1280.39 576.71L1280.39 672.71L1197.25 720.71L1114.11 672.71L1114.11 576.71zM1446.67 96.71L1529.81 144.71L1529.81 240.71L1446.67 288.71L1363.53 240.71L1363.53 144.71zM1363.53 528.71L1446.67 576.71L1446.67 672.71L1363.53 720.71L1280.39 672.71L1280.39 576.71z" stroke="rgba(195, 199, 251, 1)" stroke-width="2"></path><path d="M273.1 96.71 a9.6 9.6 0 1 0 19.2 0 a9.6 9.6 0 1 0 -19.2 0zM356.24 144.71 a9.6 9.6 0 1 0 19.2 0 a9.6 9.6 0 1 0 -19.2 0zM356.24 240.71 a9.6 9.6 0 1 0 19.2 0 a9.6 9.6 0 1 0 -19.2 0zM273.1 288.71 a9.6 9.6 0 1 0 19.2 0 a9.6 9.6 0 1 0 -19.2 0zM189.96 240.71 a9.6 9.6 0 1 0 19.2 0 a9.6 9.6 0 1 0 -19.2 0zM189.96 144.71 a9.6 9.6 0 1 0 19.2 0 a9.6 9.6 0 1 0 -19.2 0zM273.1 384.71 a9.6 9.6 0 1 0 19.2 0 a9.6 9.6 0 1 0 -19.2 0zM189.96 432.71 a9.6 9.6 0 1 0 19.2 0 a9.6 9.6 0 1 0 -19.2 0zM106.82 384.71 a9.6 9.6 0 1 0 19.2 0 a9.6 9.6 0 1 0 -19.2 0zM106.82 288.71 a9.6 9.6 0 1 0 19.2 0 a9.6 9.6 0 1 0 -19.2 0zM439.38 384.71 a9.6 9.6 0 1 0 19.2 0 a9.6 9.6 0 1 0 -19.2 0zM522.52 432.71 a9.6 9.6 0 1 0 19.2 0 a9.6 9.6 0 1 0 -19.2 0zM522.52 528.71 a9.6 9.6 0 1 0 19.2 0 a9.6 9.6 0 1 0 -19.2 0zM439.38 576.71 a9.6 9.6 0 1 0 19.2 0 a9.6 9.6 0 1 0 -19.2 0zM356.24 528.71 a9.6 9.6 0 1 0 19.2 0 a9.6 9.6 0 1 0 -19.2 0zM356.24 432.71 a9.6 9.6 0 1 0 19.2 0 a9.6 9.6 0 1 0 -19.2 0zM439.38 672.71 a9.6 9.6 0 1 0 19.2 0 a9.6 9.6 0 1 0 -19.2 0zM356.24 720.71 a9.6 9.6 0 1 0 19.2 0 a9.6 9.6 0 1 0 -19.2 0zM273.1 672.71 a9.6 9.6 0 1 0 19.2 0 a9.6 9.6 0 1 0 -19.2 0zM273.1 576.71 a9.6 9.6 0 1 0 19.2 0 a9.6 9.6 0 1 0 -19.2 0zM688.81 -47.29 a9.6 9.6 0 1 0 19.2 0 a9.6 9.6 0 1 0 -19.2 0zM771.95 0.71 a9.6 9.6 0 1 0 19.2 0 a9.6 9.6 0 1 0 -19.2 0zM771.95 96.71 a9.6 9.6 0 1 0 19.2 0 a9.6 9.6 0 1 0 -19.2 0zM688.81 144.71 a9.6 9.6 0 1 0 19.2 0 a9.6 9.6 0 1 0 -19.2 0zM605.67 96.71 a9.6 9.6 0 1 0 19.2 0 a9.6 9.6 0 1 0 -19.2 0zM605.67 0.71 a9.6 9.6 0 1 0 19.2 0 a9.6 9.6 0 1 0 -19.2 0zM855.09 144.71 a9.6 9.6 0 1 0 19.2 0 a9.6 9.6 0 1 0 -19.2 0zM855.09 240.71 a9.6 9.6 0 1 0 19.2 0 a9.6 9.6 0 1 0 -19.2 0zM771.95 288.71 a9.6 9.6 0 1 0 19.2 0 a9.6 9.6 0 1 0 -19.2 0zM688.81 240.71 a9.6 9.6 0 1 0 19.2 0 a9.6 9.6 0 1 0 -19.2 0zM1021.37 -47.29 a9.6 9.6 0 1 0 19.2 0 a9.6 9.6 0 1 0 -19.2 0zM1104.51 0.71 a9.6 9.6 0 1 0 19.2 0 a9.6 9.6 0 1 0 -19.2 0zM1104.51 96.71 a9.6 9.6 0 1 0 19.2 0 a9.6 9.6 0 1 0 -19.2 0zM1021.37 144.71 a9.6 9.6 0 1 0 19.2 0 a9.6 9.6 0 1 0 -19.2 0zM938.23 96.71 a9.6 9.6 0 1 0 19.2 0 a9.6 9.6 0 1 0 -19.2 0zM938.23 0.71 a9.6 9.6 0 1 0 19.2 0 a9.6 9.6 0 1 0 -19.2 0zM1104.51 384.71 a9.6 9.6 0 1 0 19.2 0 a9.6 9.6 0 1 0 -19.2 0zM1187.65 432.71 a9.6 9.6 0 1 0 19.2 0 a9.6 9.6 0 1 0 -19.2 0zM1187.65 528.71 a9.6 9.6 0 1 0 19.2 0 a9.6 9.6 0 1 0 -19.2 0zM1104.51 576.71 a9.6 9.6 0 1 0 19.2 0 a9.6 9.6 0 1 0 -19.2 0zM1021.37 528.71 a9.6 9.6 0 1 0 19.2 0 a9.6 9.6 0 1 0 -19.2 0zM1021.37 432.71 a9.6 9.6 0 1 0 19.2 0 a9.6 9.6 0 1 0 -19.2 0zM1187.65 240.71 a9.6 9.6 0 1 0 19.2 0 a9.6 9.6 0 1 0 -19.2 0zM1270.79 288.71 a9.6 9.6 0 1 0 19.2 0 a9.6 9.6 0 1 0 -19.2 0zM1270.79 384.71 a9.6 9.6 0 1 0 19.2 0 a9.6 9.6 0 1 0 -19.2 0zM1104.51 288.71 a9.6 9.6 0 1 0 19.2 0 a9.6 9.6 0 1 0 -19.2 0zM1353.93 432.71 a9.6 9.6 0 1 0 19.2 0 a9.6 9.6 0 1 0 -19.2 0zM1353.93 528.71 a9.6 9.6 0 1 0 19.2 0 a9.6 9.6 0 1 0 -19.2 0zM1270.79 576.71 a9.6 9.6 0 1 0 19.2 0 a9.6 9.6 0 1 0 -19.2 0zM1270.79 672.71 a9.6 9.6 0 1 0 19.2 0 a9.6 9.6 0 1 0 -19.2 0zM1187.65 720.71 a9.6 9.6 0 1 0 19.2 0 a9.6 9.6 0 1 0 -19.2 0zM1104.51 672.71 a9.6 9.6 0 1 0 19.2 0 a9.6 9.6 0 1 0 -19.2 0zM1437.07 96.71 a9.6 9.6 0 1 0 19.2 0 a9.6 9.6 0 1 0 -19.2 0zM1520.21 144.71 a9.6 9.6 0 1 0 19.2 0 a9.6 9.6 0 1 0 -19.2 0zM1520.21 240.71 a9.6 9.6 0 1 0 19.2 0 a9.6 9.6 0 1 0 -19.2 0zM1437.07 288.71 a9.6 9.6 0 1 0 19.2 0 a9.6 9.6 0 1 0 -19.2 0zM1353.93 240.71 a9.6 9.6 0 1 0 19.2 0 a9.6 9.6 0 1 0 -19.2 0zM1353.93 144.71 a9.6 9.6 0 1 0 19.2 0 a9.6 9.6 0 1 0 -19.2 0zM1437.07 576.71 a9.6 9.6 0 1 0 19.2 0 a9.6 9.6 0 1 0 -19.2 0zM1437.07 672.71 a9.6 9.6 0 1 0 19.2 0 a9.6 9.6 0 1 0 -19.2 0zM1353.93 720.71 a9.6 9.6 0 1 0 19.2 0 a9.6 9.6 0 1 0 -19.2 0z" fill="rgba(195, 199, 251, 1)"></path><path d="M5.18 154.49L70.13 191.99L70.13 266.99L5.18 304.49L-59.77 266.99L-59.77 191.99zM70.13 266.99L135.09 304.49L135.09 379.49L70.13 416.99L5.18 379.49L5.18 304.49zM265 154.49L329.95 191.99L329.95 266.99L265 304.49L200.04 266.99L200.04 191.99zM329.95 266.99L394.9 304.49L394.9 379.49L329.95 416.99L265 379.49L265 304.49zM329.95 491.99L394.9 529.49L394.9 604.49L329.95 641.99L265 604.49L265 529.49zM459.86 266.99L524.81 304.49L524.81 379.49L459.86 416.99L394.9 379.49L394.9 304.49zM459.86 491.99L524.81 529.49L524.81 604.49L459.86 641.99L394.9 604.49L394.9 529.49zM589.76 41.99L654.72 79.49L654.72 154.49L589.76 191.99L524.81 154.49L524.81 79.49zM589.76 266.99L654.72 304.49L654.72 379.49L589.76 416.99L524.81 379.49L524.81 304.49zM719.67 41.99L784.63 79.49L784.63 154.49L719.67 191.99L654.72 154.49L654.72 79.49zM654.72 154.49L719.67 191.99L719.67 266.99L654.72 304.49L589.76 266.99L589.76 191.99zM719.67 491.99L784.63 529.49L784.63 604.49L719.67 641.99L654.72 604.49L654.72 529.49zM849.58 41.99L914.53 79.49L914.53 154.49L849.58 191.99L784.62 154.49L784.62 79.49zM849.58 266.99L914.53 304.49L914.53 379.49L849.58 416.99L784.62 379.49L784.62 304.49zM849.58 491.99L914.53 529.49L914.53 604.49L849.58 641.99L784.62 604.49L784.62 529.49zM979.49 266.99L1044.44 304.49L1044.44 379.49L979.49 416.99L914.53 379.49L914.53 304.49zM979.49 491.99L1044.44 529.49L1044.44 604.49L979.49 641.99L914.53 604.49L914.53 529.49zM1044.44 -70.51L1109.39 -33.01L1109.39 41.99L1044.44 79.49L979.49 41.99L979.49 -33.01zM1044.44 154.49L1109.39 191.99L1109.39 266.99L1044.44 304.49L979.49 266.99L979.49 191.99zM1044.44 379.49L1109.39 416.99L1109.39 491.99L1044.44 529.49L979.49 491.99L979.49 416.99zM1109.39 491.99L1174.35 529.49L1174.35 604.49L1109.39 641.99L1044.44 604.49L1044.44 529.49zM1174.35 -70.51L1239.3 -33.01L1239.3 41.99L1174.35 79.49L1109.39 41.99L1109.39 -33.01zM1174.35 154.49L1239.3 191.99L1239.3 266.99L1174.35 304.49L1109.39 266.99L1109.39 191.99zM1174.35 379.49L1239.3 416.99L1239.3 491.99L1174.35 529.49L1109.39 491.99L1109.39 416.99zM1304.26 -70.51L1369.21 -33.01L1369.21 41.99L1304.26 79.49L1239.3 41.99L1239.3 -33.01zM1369.21 41.99L1434.16 79.49L1434.16 154.49L1369.21 191.99L1304.26 154.49L1304.26 79.49zM1369.21 266.99L1434.16 304.49L1434.16 379.49L1369.21 416.99L1304.26 379.49L1304.26 304.49zM1304.26 379.49L1369.21 416.99L1369.21 491.99L1304.26 529.49L1239.3 491.99L1239.3 416.99zM1434.16 379.49L1499.12 416.99L1499.12 491.99L1434.16 529.49L1369.21 491.99L1369.21 416.99zM1499.12 491.99L1564.07 529.49L1564.07 604.49L1499.12 641.99L1434.16 604.49L1434.16 529.49z" stroke="rgba(205, 102, 255, 1)" stroke-width="2"></path><path d="M-2.32 154.49 a7.5 7.5 0 1 0 15 0 a7.5 7.5 0 1 0 -15 0zM62.63 191.99 a7.5 7.5 0 1 0 15 0 a7.5 7.5 0 1 0 -15 0zM62.63 266.99 a7.5 7.5 0 1 0 15 0 a7.5 7.5 0 1 0 -15 0zM-2.32 304.49 a7.5 7.5 0 1 0 15 0 a7.5 7.5 0 1 0 -15 0zM-67.27 266.99 a7.5 7.5 0 1 0 15 0 a7.5 7.5 0 1 0 -15 0zM-67.27 191.99 a7.5 7.5 0 1 0 15 0 a7.5 7.5 0 1 0 -15 0zM127.59 304.49 a7.5 7.5 0 1 0 15 0 a7.5 7.5 0 1 0 -15 0zM127.59 379.49 a7.5 7.5 0 1 0 15 0 a7.5 7.5 0 1 0 -15 0zM62.63 416.99 a7.5 7.5 0 1 0 15 0 a7.5 7.5 0 1 0 -15 0zM-2.32 379.49 a7.5 7.5 0 1 0 15 0 a7.5 7.5 0 1 0 -15 0zM257.5 154.49 a7.5 7.5 0 1 0 15 0 a7.5 7.5 0 1 0 -15 0zM322.45 191.99 a7.5 7.5 0 1 0 15 0 a7.5 7.5 0 1 0 -15 0zM322.45 266.99 a7.5 7.5 0 1 0 15 0 a7.5 7.5 0 1 0 -15 0zM257.5 304.49 a7.5 7.5 0 1 0 15 0 a7.5 7.5 0 1 0 -15 0zM192.54 266.99 a7.5 7.5 0 1 0 15 0 a7.5 7.5 0 1 0 -15 0zM192.54 191.99 a7.5 7.5 0 1 0 15 0 a7.5 7.5 0 1 0 -15 0zM387.4 304.49 a7.5 7.5 0 1 0 15 0 a7.5 7.5 0 1 0 -15 0zM387.4 379.49 a7.5 7.5 0 1 0 15 0 a7.5 7.5 0 1 0 -15 0zM322.45 416.99 a7.5 7.5 0 1 0 15 0 a7.5 7.5 0 1 0 -15 0zM257.5 379.49 a7.5 7.5 0 1 0 15 0 a7.5 7.5 0 1 0 -15 0zM322.45 491.99 a7.5 7.5 0 1 0 15 0 a7.5 7.5 0 1 0 -15 0zM387.4 529.49 a7.5 7.5 0 1 0 15 0 a7.5 7.5 0 1 0 -15 0zM387.4 604.49 a7.5 7.5 0 1 0 15 0 a7.5 7.5 0 1 0 -15 0zM322.45 641.99 a7.5 7.5 0 1 0 15 0 a7.5 7.5 0 1 0 -15 0zM257.5 604.49 a7.5 7.5 0 1 0 15 0 a7.5 7.5 0 1 0 -15 0zM257.5 529.49 a7.5 7.5 0 1 0 15 0 a7.5 7.5 0 1 0 -15 0zM452.36 266.99 a7.5 7.5 0 1 0 15 0 a7.5 7.5 0 1 0 -15 0zM517.31 304.49 a7.5 7.5 0 1 0 15 0 a7.5 7.5 0 1 0 -15 0zM517.31 379.49 a7.5 7.5 0 1 0 15 0 a7.5 7.5 0 1 0 -15 0zM452.36 416.99 a7.5 7.5 0 1 0 15 0 a7.5 7.5 0 1 0 -15 0zM452.36 491.99 a7.5 7.5 0 1 0 15 0 a7.5 7.5 0 1 0 -15 0zM517.31 529.49 a7.5 7.5 0 1 0 15 0 a7.5 7.5 0 1 0 -15 0zM517.31 604.49 a7.5 7.5 0 1 0 15 0 a7.5 7.5 0 1 0 -15 0zM452.36 641.99 a7.5 7.5 0 1 0 15 0 a7.5 7.5 0 1 0 -15 0zM582.26 41.99 a7.5 7.5 0 1 0 15 0 a7.5 7.5 0 1 0 -15 0zM647.22 79.49 a7.5 7.5 0 1 0 15 0 a7.5 7.5 0 1 0 -15 0zM647.22 154.49 a7.5 7.5 0 1 0 15 0 a7.5 7.5 0 1 0 -15 0zM582.26 191.99 a7.5 7.5 0 1 0 15 0 a7.5 7.5 0 1 0 -15 0zM517.31 154.49 a7.5 7.5 0 1 0 15 0 a7.5 7.5 0 1 0 -15 0zM517.31 79.49 a7.5 7.5 0 1 0 15 0 a7.5 7.5 0 1 0 -15 0zM582.26 266.99 a7.5 7.5 0 1 0 15 0 a7.5 7.5 0 1 0 -15 0zM647.22 304.49 a7.5 7.5 0 1 0 15 0 a7.5 7.5 0 1 0 -15 0zM647.22 379.49 a7.5 7.5 0 1 0 15 0 a7.5 7.5 0 1 0 -15 0zM582.26 416.99 a7.5 7.5 0 1 0 15 0 a7.5 7.5 0 1 0 -15 0zM712.17 41.99 a7.5 7.5 0 1 0 15 0 a7.5 7.5 0 1 0 -15 0zM777.13 79.49 a7.5 7.5 0 1 0 15 0 a7.5 7.5 0 1 0 -15 0zM777.13 154.49 a7.5 7.5 0 1 0 15 0 a7.5 7.5 0 1 0 -15 0zM712.17 191.99 a7.5 7.5 0 1 0 15 0 a7.5 7.5 0 1 0 -15 0zM712.17 266.99 a7.5 7.5 0 1 0 15 0 a7.5 7.5 0 1 0 -15 0zM712.17 491.99 a7.5 7.5 0 1 0 15 0 a7.5 7.5 0 1 0 -15 0zM777.13 529.49 a7.5 7.5 0 1 0 15 0 a7.5 7.5 0 1 0 -15 0zM777.13 604.49 a7.5 7.5 0 1 0 15 0 a7.5 7.5 0 1 0 -15 0zM712.17 641.99 a7.5 7.5 0 1 0 15 0 a7.5 7.5 0 1 0 -15 0zM647.22 604.49 a7.5 7.5 0 1 0 15 0 a7.5 7.5 0 1 0 -15 0zM647.22 529.49 a7.5 7.5 0 1 0 15 0 a7.5 7.5 0 1 0 -15 0zM842.08 41.99 a7.5 7.5 0 1 0 15 0 a7.5 7.5 0 1 0 -15 0zM907.03 79.49 a7.5 7.5 0 1 0 15 0 a7.5 7.5 0 1 0 -15 0zM907.03 154.49 a7.5 7.5 0 1 0 15 0 a7.5 7.5 0 1 0 -15 0zM842.08 191.99 a7.5 7.5 0 1 0 15 0 a7.5 7.5 0 1 0 -15 0zM777.12 154.49 a7.5 7.5 0 1 0 15 0 a7.5 7.5 0 1 0 -15 0zM777.12 79.49 a7.5 7.5 0 1 0 15 0 a7.5 7.5 0 1 0 -15 0zM842.08 266.99 a7.5 7.5 0 1 0 15 0 a7.5 7.5 0 1 0 -15 0zM907.03 304.49 a7.5 7.5 0 1 0 15 0 a7.5 7.5 0 1 0 -15 0zM907.03 379.49 a7.5 7.5 0 1 0 15 0 a7.5 7.5 0 1 0 -15 0zM842.08 416.99 a7.5 7.5 0 1 0 15 0 a7.5 7.5 0 1 0 -15 0zM777.12 379.49 a7.5 7.5 0 1 0 15 0 a7.5 7.5 0 1 0 -15 0zM777.12 304.49 a7.5 7.5 0 1 0 15 0 a7.5 7.5 0 1 0 -15 0zM842.08 491.99 a7.5 7.5 0 1 0 15 0 a7.5 7.5 0 1 0 -15 0zM907.03 529.49 a7.5 7.5 0 1 0 15 0 a7.5 7.5 0 1 0 -15 0zM907.03 604.49 a7.5 7.5 0 1 0 15 0 a7.5 7.5 0 1 0 -15 0zM842.08 641.99 a7.5 7.5 0 1 0 15 0 a7.5 7.5 0 1 0 -15 0zM777.12 604.49 a7.5 7.5 0 1 0 15 0 a7.5 7.5 0 1 0 -15 0zM777.12 529.49 a7.5 7.5 0 1 0 15 0 a7.5 7.5 0 1 0 -15 0zM971.99 266.99 a7.5 7.5 0 1 0 15 0 a7.5 7.5 0 1 0 -15 0zM1036.94 304.49 a7.5 7.5 0 1 0 15 0 a7.5 7.5 0 1 0 -15 0zM1036.94 379.49 a7.5 7.5 0 1 0 15 0 a7.5 7.5 0 1 0 -15 0zM971.99 416.99 a7.5 7.5 0 1 0 15 0 a7.5 7.5 0 1 0 -15 0zM971.99 491.99 a7.5 7.5 0 1 0 15 0 a7.5 7.5 0 1 0 -15 0zM1036.94 529.49 a7.5 7.5 0 1 0 15 0 a7.5 7.5 0 1 0 -15 0zM1036.94 604.49 a7.5 7.5 0 1 0 15 0 a7.5 7.5 0 1 0 -15 0zM971.99 641.99 a7.5 7.5 0 1 0 15 0 a7.5 7.5 0 1 0 -15 0zM1036.94 -70.51 a7.5 7.5 0 1 0 15 0 a7.5 7.5 0 1 0 -15 0zM1101.89 -33.01 a7.5 7.5 0 1 0 15 0 a7.5 7.5 0 1 0 -15 0zM1101.89 41.99 a7.5 7.5 0 1 0 15 0 a7.5 7.5 0 1 0 -15 0zM1036.94 79.49 a7.5 7.5 0 1 0 15 0 a7.5 7.5 0 1 0 -15 0zM971.99 41.99 a7.5 7.5 0 1 0 15 0 a7.5 7.5 0 1 0 -15 0zM971.99 -33.01 a7.5 7.5 0 1 0 15 0 a7.5 7.5 0 1 0 -15 0zM1036.94 154.49 a7.5 7.5 0 1 0 15 0 a7.5 7.5 0 1 0 -15 0zM1101.89 191.99 a7.5 7.5 0 1 0 15 0 a7.5 7.5 0 1 0 -15 0zM1101.89 266.99 a7.5 7.5 0 1 0 15 0 a7.5 7.5 0 1 0 -15 0zM971.99 191.99 a7.5 7.5 0 1 0 15 0 a7.5 7.5 0 1 0 -15 0zM1101.89 416.99 a7.5 7.5 0 1 0 15 0 a7.5 7.5 0 1 0 -15 0zM1101.89 491.99 a7.5 7.5 0 1 0 15 0 a7.5 7.5 0 1 0 -15 0zM1166.85 529.49 a7.5 7.5 0 1 0 15 0 a7.5 7.5 0 1 0 -15 0zM1166.85 604.49 a7.5 7.5 0 1 0 15 0 a7.5 7.5 0 1 0 -15 0zM1101.89 641.99 a7.5 7.5 0 1 0 15 0 a7.5 7.5 0 1 0 -15 0zM1166.85 -70.51 a7.5 7.5 0 1 0 15 0 a7.5 7.5 0 1 0 -15 0zM1231.8 -33.01 a7.5 7.5 0 1 0 15 0 a7.5 7.5 0 1 0 -15 0zM1231.8 41.99 a7.5 7.5 0 1 0 15 0 a7.5 7.5 0 1 0 -15 0zM1166.85 79.49 a7.5 7.5 0 1 0 15 0 a7.5 7.5 0 1 0 -15 0zM1166.85 154.49 a7.5 7.5 0 1 0 15 0 a7.5 7.5 0 1 0 -15 0zM1231.8 191.99 a7.5 7.5 0 1 0 15 0 a7.5 7.5 0 1 0 -15 0zM1231.8 266.99 a7.5 7.5 0 1 0 15 0 a7.5 7.5 0 1 0 -15 0zM1166.85 304.49 a7.5 7.5 0 1 0 15 0 a7.5 7.5 0 1 0 -15 0zM1166.85 379.49 a7.5 7.5 0 1 0 15 0 a7.5 7.5 0 1 0 -15 0zM1231.8 416.99 a7.5 7.5 0 1 0 15 0 a7.5 7.5 0 1 0 -15 0zM1231.8 491.99 a7.5 7.5 0 1 0 15 0 a7.5 7.5 0 1 0 -15 0zM1296.76 -70.51 a7.5 7.5 0 1 0 15 0 a7.5 7.5 0 1 0 -15 0zM1361.71 -33.01 a7.5 7.5 0 1 0 15 0 a7.5 7.5 0 1 0 -15 0zM1361.71 41.99 a7.5 7.5 0 1 0 15 0 a7.5 7.5 0 1 0 -15 0zM1296.76 79.49 a7.5 7.5 0 1 0 15 0 a7.5 7.5 0 1 0 -15 0zM1426.66 79.49 a7.5 7.5 0 1 0 15 0 a7.5 7.5 0 1 0 -15 0zM1426.66 154.49 a7.5 7.5 0 1 0 15 0 a7.5 7.5 0 1 0 -15 0zM1361.71 191.99 a7.5 7.5 0 1 0 15 0 a7.5 7.5 0 1 0 -15 0zM1296.76 154.49 a7.5 7.5 0 1 0 15 0 a7.5 7.5 0 1 0 -15 0zM1361.71 266.99 a7.5 7.5 0 1 0 15 0 a7.5 7.5 0 1 0 -15 0zM1426.66 304.49 a7.5 7.5 0 1 0 15 0 a7.5 7.5 0 1 0 -15 0zM1426.66 379.49 a7.5 7.5 0 1 0 15 0 a7.5 7.5 0 1 0 -15 0zM1361.71 416.99 a7.5 7.5 0 1 0 15 0 a7.5 7.5 0 1 0 -15 0zM1296.76 379.49 a7.5 7.5 0 1 0 15 0 a7.5 7.5 0 1 0 -15 0zM1296.76 304.49 a7.5 7.5 0 1 0 15 0 a7.5 7.5 0 1 0 -15 0zM1361.71 491.99 a7.5 7.5 0 1 0 15 0 a7.5 7.5 0 1 0 -15 0zM1296.76 529.49 a7.5 7.5 0 1 0 15 0 a7.5 7.5 0 1 0 -15 0zM1491.62 416.99 a7.5 7.5 0 1 0 15 0 a7.5 7.5 0 1 0 -15 0zM1491.62 491.99 a7.5 7.5 0 1 0 15 0 a7.5 7.5 0 1 0 -15 0zM1426.66 529.49 a7.5 7.5 0 1 0 15 0 a7.5 7.5 0 1 0 -15 0zM1556.57 529.49 a7.5 7.5 0 1 0 15 0 a7.5 7.5 0 1 0 -15 0zM1556.57 604.49 a7.5 7.5 0 1 0 15 0 a7.5 7.5 0 1 0 -15 0zM1491.62 641.99 a7.5 7.5 0 1 0 15 0 a7.5 7.5 0 1 0 -15 0zM1426.66 604.49 a7.5 7.5 0 1 0 15 0 a7.5 7.5 0 1 0 -15 0z" fill="rgba(205, 102, 255, 1)"></path><path d="M215.26 268.1L258.56 293.1L258.56 343.1L215.26 368.1L171.96 343.1L171.96 293.1zM215.26 418.1L258.56 443.1L258.56 493.1L215.26 518.1L171.96 493.1L171.96 443.1zM431.77 343.1L475.08 368.1L475.08 418.1L431.77 443.1L388.47 418.1L388.47 368.1zM475.08 -31.9L518.38 -6.9L518.38 43.1L475.08 68.1L431.77 43.1L431.77 -6.9zM518.38 343.1L561.68 368.1L561.68 418.1L518.38 443.1L475.08 418.1L475.08 368.1zM561.68 -31.9L604.98 -6.9L604.98 43.1L561.68 68.1L518.38 43.1L518.38 -6.9zM691.59 343.1L734.89 368.1L734.89 418.1L691.59 443.1L648.28 418.1L648.28 368.1zM951.4 43.1L994.71 68.1L994.71 118.1L951.4 143.1L908.1 118.1L908.1 68.1zM908.1 268.1L951.4 293.1L951.4 343.1L908.1 368.1L864.8 343.1L864.8 293.1zM994.71 -31.9L1038.01 -6.9L1038.01 43.1L994.71 68.1L951.4 43.1L951.4 -6.9zM1254.52 118.1L1297.82 143.1L1297.82 193.1L1254.52 218.1L1211.22 193.1L1211.22 143.1zM1384.43 193.1L1427.73 218.1L1427.73 268.1L1384.43 293.1L1341.13 268.1L1341.13 218.1zM1384.43 343.1L1427.73 368.1L1427.73 418.1L1384.43 443.1L1341.13 418.1L1341.13 368.1zM1427.73 118.1L1471.03 143.1L1471.03 193.1L1427.73 218.1L1384.43 193.1L1384.43 143.1zM1471.03 193.1L1514.34 218.1L1514.34 268.1L1471.03 293.1L1427.73 268.1L1427.73 218.1z" stroke="rgba(69, 20, 92, 1)" stroke-width="2"></path></g><defs><mask id="SvgjsMask1018"><rect width="1440" height="560" fill="#ffffff"></rect></mask></defs></svg>