<?xml version="1.0" encoding="iso-8859-1"?>
<!-- Uploaded to: SVG Repo, www.svgrepo.com, Generator: SVG Repo Mixer Tools -->
<svg height="800px" width="800px" version="1.1" id="Layer_1" xmlns="http://www.w3.org/2000/svg" xmlns:xlink="http://www.w3.org/1999/xlink" 
	 viewBox="0 0 503.754 503.754" xml:space="preserve">
<g transform="translate(1 1)">
	<g>
		<polygon style="fill:#FFA800;" points="66.167,347.426 200.501,347.426 200.501,213.092 66.167,213.092 		"/>
		<polygon style="fill:#FFA800;" points="360.024,347.426 494.358,347.426 494.358,213.092 360.024,213.092 		"/>
	</g>
	<g>
		<polygon style="fill:#FFE100;" points="318.044,209.964 223.053,114.973 318.044,19.99 413.035,114.973 		"/>
		<polygon style="fill:#FFE100;" points="326.44,481.761 460.774,481.761 460.774,347.426 326.44,347.426 		"/>
		<polygon style="fill:#FFE100;" points="7.396,481.761 141.73,481.761 141.73,347.426 7.396,347.426 		"/>
		<polygon style="fill:#FFE100;" points="15.792,213.092 150.126,213.092 150.126,78.758 15.792,78.758 		"/>
	</g>
	<path d="M141.73,490.16H7.396c-4.637,0-8.396-3.755-8.396-8.396V347.43c0-4.641,3.759-8.396,8.396-8.396H141.73
		c4.637,0,8.396,3.755,8.396,8.396v134.334C150.126,486.405,146.367,490.16,141.73,490.16z M15.792,473.368h117.543V355.826H15.792
		V473.368z"/>
	<path d="M49.375,381.01c0-4.635-3.761-8.396-8.396-8.396s-8.396,3.761-8.396,8.396s3.761,8.396,8.396,8.396
		S49.375,385.645,49.375,381.01"/>
	<path d="M116.543,381.01c0-4.635-3.761-8.396-8.396-8.396s-8.396,3.761-8.396,8.396s3.761,8.396,8.396,8.396
		S116.543,385.645,116.543,381.01"/>
	<path d="M49.375,448.177c0-4.635-3.761-8.396-8.396-8.396s-8.396,3.761-8.396,8.396s3.761,8.396,8.396,8.396
		S49.375,452.813,49.375,448.177"/>
	<path d="M116.543,448.177c0-4.635-3.761-8.396-8.396-8.396s-8.396,3.761-8.396,8.396s3.761,8.396,8.396,8.396
		S116.543,452.813,116.543,448.177"/>
	<path d="M200.501,355.826H66.167c-4.637,0-8.396-3.755-8.396-8.396V213.091c0-4.637,3.759-8.396,8.396-8.396h134.334
		c4.637,0,8.396,3.759,8.396,8.396V347.43C208.897,352.07,205.138,355.826,200.501,355.826z M74.563,339.034h117.543V221.487H74.563
		V339.034z"/>
	<path d="M108.147,246.676c0-4.635-3.761-8.396-8.396-8.396s-8.396,3.761-8.396,8.396s3.761,8.396,8.396,8.396
		S108.147,251.31,108.147,246.676"/>
	<path d="M141.73,280.259c0-4.635-3.761-8.396-8.396-8.396s-8.396,3.761-8.396,8.396s3.761,8.396,8.396,8.396
		S141.73,284.895,141.73,280.259"/>
	<path d="M175.314,313.843c0-4.635-3.761-8.396-8.396-8.396s-8.396,3.761-8.396,8.396s3.761,8.396,8.396,8.396
		C171.552,322.24,175.314,318.477,175.314,313.843"/>
	<path d="M150.126,221.487H15.792c-4.637,0-8.396-3.759-8.396-8.396V78.757c0-4.637,3.759-8.396,8.396-8.396h134.334
		c4.637,0,8.396,3.759,8.396,8.396v134.334C158.522,217.728,154.763,221.487,150.126,221.487z M24.188,204.695H141.73V87.153H24.188
		V204.695z"/>
	<path d="M91.355,145.925c0-4.635-3.761-8.396-8.396-8.396s-8.396,3.761-8.396,8.396s3.761,8.396,8.396,8.396
		C87.593,154.321,91.355,150.559,91.355,145.925"/>
	<path d="M318.044,218.359c-2.148,0-4.296-0.82-5.936-2.46l-94.991-94.991c-1.574-1.574-2.46-3.71-2.46-5.936
		s0.886-4.362,2.46-5.936l94.991-94.983c3.28-3.28,8.593-3.28,11.872,0l94.995,94.983c1.574,1.574,2.46,3.71,2.46,5.936
		s-0.885,4.362-2.46,5.936l-94.995,94.991C322.34,217.539,320.192,218.359,318.044,218.359z M234.925,114.972l83.119,83.119
		l83.123-83.119l-83.123-83.11L234.925,114.972z"/>
	<path d="M323.981,73.418c3.283-3.283,3.283-8.597,0-11.872c-3.283-3.283-8.597-3.283-11.872,0c-3.283,3.274-3.283,8.589,0,11.872
		C315.383,76.701,320.698,76.701,323.981,73.418"/>
	<path d="M371.475,120.913c3.283-3.283,3.283-8.597,0-11.872c-3.283-3.283-8.597-3.283-11.872,0c-3.283,3.274-3.283,8.589,0,11.872
		C362.878,124.195,368.193,124.195,371.475,120.913"/>
	<path d="M276.487,120.913c3.283-3.283,3.283-8.597,0-11.872c-3.283-3.283-8.597-3.283-11.872,0c-3.283,3.274-3.283,8.589,0,11.872
		C267.889,124.195,273.204,124.195,276.487,120.913"/>
	<path d="M300.234,144.659c3.283-3.283,3.283-8.597,0-11.872c-3.283-3.283-8.597-3.283-11.872,0c-3.283,3.274-3.283,8.589,0,11.872
		C291.636,147.942,296.951,147.942,300.234,144.659"/>
	<path d="M347.728,97.165c3.283-3.283,3.283-8.597,0-11.872c-3.283-3.283-8.597-3.283-11.872,0c-3.283,3.274-3.283,8.589,0,11.872
		C339.13,100.448,344.445,100.448,347.728,97.165"/>
	<path d="M323.981,168.406c3.283-3.283,3.283-8.597,0-11.872c-3.283-3.283-8.597-3.283-11.872,0c-3.283,3.274-3.283,8.589,0,11.872
		C315.383,171.688,320.698,171.688,323.981,168.406"/>
	<path d="M460.774,490.16H326.44c-4.641,0-8.396-3.755-8.396-8.396V347.43c0-4.641,3.755-8.396,8.396-8.396h134.334
		c4.641,0,8.396,3.755,8.396,8.396v134.334C469.17,486.405,465.415,490.16,460.774,490.16z M334.836,473.368h117.543V355.826
		H334.836V473.368z"/>
	<path d="M368.419,381.01c0-4.635-3.761-8.396-8.396-8.396s-8.396,3.761-8.396,8.396s3.761,8.396,8.396,8.396
		S368.419,385.645,368.419,381.01"/>
	<path d="M435.587,381.01c0-4.635-3.761-8.396-8.396-8.396s-8.396,3.761-8.396,8.396s3.761,8.396,8.396,8.396
		S435.587,385.645,435.587,381.01"/>
	<path d="M368.419,448.177c0-4.635-3.761-8.396-8.396-8.396s-8.396,3.761-8.396,8.396s3.761,8.396,8.396,8.396
		S368.419,452.813,368.419,448.177"/>
	<path d="M402.003,414.593c0-4.635-3.761-8.396-8.396-8.396c-4.634,0-8.396,3.761-8.396,8.396s3.761,8.396,8.396,8.396
		C398.242,422.99,402.003,419.228,402.003,414.593"/>
	<path d="M435.587,448.177c0-4.635-3.761-8.396-8.396-8.396s-8.396,3.761-8.396,8.396s3.761,8.396,8.396,8.396
		S435.587,452.813,435.587,448.177"/>
	<path d="M494.358,355.826H360.024c-4.641,0-8.396-3.755-8.396-8.396V213.091c0-4.637,3.755-8.396,8.396-8.396h134.334
		c4.641,0,8.396,3.759,8.396,8.396V347.43C502.754,352.07,498.999,355.826,494.358,355.826z M368.419,339.034h117.543V221.487
		H368.419V339.034z"/>
	<path d="M402.003,246.676c0-4.635-3.761-8.396-8.396-8.396c-4.634,0-8.396,3.761-8.396,8.396s3.761,8.396,8.396,8.396
		C398.242,255.071,402.003,251.31,402.003,246.676"/>
	<path d="M469.17,313.843c0-4.635-3.761-8.396-8.396-8.396s-8.396,3.761-8.396,8.396s3.761,8.396,8.396,8.396
		S469.17,318.477,469.17,313.843"/>
</g>
</svg>