<?xml version="1.0" encoding="iso-8859-1"?>
<!-- Uploaded to: SVG Repo, www.svgrepo.com, Generator: SVG Repo Mixer Tools -->
<svg height="800px" width="800px" version="1.1" id="Layer_1" xmlns="http://www.w3.org/2000/svg" xmlns:xlink="http://www.w3.org/1999/xlink" 
	 viewBox="0 0 469.962 469.962" xml:space="preserve">
<g transform="translate(1 1)">
	<polygon style="fill:#FFE100;" points="454.794,91.985 228.105,167.548 9.812,83.589 228.105,8.026 	"/>
	<polygon style="fill:#FFA800;" points="228.105,167.548 9.812,83.589 9.812,369.049 228.105,461.404 	"/>
	<polygon style="fill:#FFE100;" points="202.917,159.152 9.812,83.589 9.812,360.653 202.917,453.008 	"/>
	<polygon style="fill:#FFA800;" points="454.794,91.985 228.105,167.548 228.105,461.404 454.794,377.445 	"/>
	<polygon style="fill:#FFFFFF;" points="18.208,377.445 34.999,377.445 34.999,91.985 18.208,91.985 	"/>
	<polygon style="fill:#FFE100;" points="430.446,100.38 228.105,167.548 228.945,461.404 430.446,385.841 	"/>
	<path d="M463.19,89.466C463.19,89.466,462.351,89.466,463.19,89.466c-0.84-0.84-0.84-1.679-0.84-2.519v-0.84
		c0-0.84-0.84-0.84-0.84-0.84s0,0-0.84-0.84l0,0c-0.84-0.84-0.84-0.84-1.679-0.84l0,0L232.303-0.37c-1.679-0.84-4.198-0.84-5.877,0
		L8.133,75.193l0,0c-0.84,0-1.679,0.84-1.679,0.84l0,0c0,0,0,0-0.84,0.84c-0.84,0-0.84,0.84-0.84,0.84s0,0.84-0.84,0.84
		c0,0.84-0.84,0.84-0.84,1.679v0.84c0,0.84,0,0.84,0,1.679l0,0l0,0l0,0v285.46c0,3.358,1.679,6.717,5.038,7.556l218.293,92.355l0,0
		c0.84,0,1.679,0.84,3.358,0.84c0.84,0,1.679,0,2.519-0.84l0,0l226.689-83.959c3.358-0.84,5.877-4.198,5.877-7.556V91.985
		C463.19,91.145,463.19,90.305,463.19,89.466z M228.105,17.261l201.501,74.723l-201.501,67.167L34.16,83.589L228.105,17.261z
		 M18.208,96.183l201.501,77.242V448.81L18.208,363.172V96.183z M236.501,449.65V173.425l209.897-69.686v267.829L236.501,449.65z"/>
	<path d="M427.927,162.51c0,10.915-6.717,20.15-15.952,20.15c-8.396,0-15.952-9.235-15.952-20.15s6.717-20.15,15.952-20.15
		C420.371,142.36,427.927,151.595,427.927,162.51"/>
	<path d="M362.439,263.261c0,10.915-6.717,20.15-15.952,20.15c-8.396,0-15.952-9.236-15.952-20.15
		c0-10.915,6.717-20.15,15.952-20.15S362.439,252.346,362.439,263.261"/>
	<path d="M301.989,374.087c0,10.915-6.717,20.15-15.952,20.15c-8.396,0-15.952-9.235-15.952-20.15s6.717-20.15,15.952-20.15
		C294.433,353.937,301.989,363.172,301.989,374.087"/>
	<path d="M188.644,204.49c0,10.915-6.717,20.15-15.952,20.15c-8.396,0-15.952-9.235-15.952-20.15s6.717-20.15,15.952-20.15
		C181.928,185.179,188.644,193.575,188.644,204.49"/>
	<path d="M67.743,154.954c0,10.915-6.717,20.15-15.952,20.15c-8.396,0-15.952-9.235-15.952-20.15s7.556-20.15,15.952-20.15
		C61.027,134.804,67.743,143.2,67.743,154.954"/>
	<path d="M186.126,380.803c0,10.915-6.717,20.15-15.952,20.15c-8.396,0-15.952-9.235-15.952-20.15s6.717-20.15,15.952-20.15
		S186.126,369.889,186.126,380.803"/>
	<path d="M66.904,332.107c0,10.915-6.717,20.15-15.113,20.15s-15.952-9.235-15.952-20.15s6.717-20.15,15.952-20.15
		C60.187,311.957,66.904,321.193,66.904,332.107"/>
	<path d="M228.105,70.995c10.915,0,20.15,6.717,20.15,15.952c0,8.396-9.235,15.952-20.15,15.952s-20.15-6.717-20.15-15.952
		S217.19,70.995,228.105,70.995"/>
</g>
</svg>