<svg viewBox="0 0 1161 194" fill="none" xmlns="http://www.w3.org/2000/svg">
<path d="M78.9904 51.203C76.5024 50.795 73.9544 51.027 71.5784 51.877C69.2034 52.727 67.0774 54.167 65.3974 56.066C62.1904 59.7 61.1924 64.431 61.9634 69.171C62.6604 73.447 63.5854 77.786 63.7944 81.905C64.0854 88.108 63.1514 94.308 61.0474 100.143C59.1434 105.422 56.4314 109.516 50.6184 110.422C50.1874 110.491 48.6174 110.54 48.1714 110.564C47.7264 110.589 46.3164 110.496 45.8804 110.427C40.0674 109.521 37.3304 105.427 35.4314 100.113C33.3274 94.278 32.3934 88.079 32.6854 81.875C32.8934 77.771 33.8184 73.427 34.5164 69.142C35.2864 64.401 34.2884 59.67 31.0814 56.036C29.3964 54.139 27.2654 52.702 24.8854 51.857C22.5054 51.013 19.9534 50.787 17.4644 51.203C10.0094 52.432 5.0444 59.122 5.0004 66.14C4.9804 68.844 5.7064 71.5 7.0984 73.809C9.4184 77.678 13.2264 80.499 16.5494 83.428C18.7484 85.387 22.5514 90.945 24.4164 96.969C25.5444 100.618 26.4654 104.315 27.3754 108.047C28.6544 113.248 30.4134 124.738 31.5704 129.953C33.8814 140.394 40.9544 142.76 48.0414 143H48.2934C55.3804 142.76 62.5684 140.389 64.8794 129.948C66.0324 124.733 67.7854 113.238 69.0744 108.042C69.9904 104.33 70.9054 100.613 72.0344 96.964C73.8994 90.94 77.7014 85.362 79.9014 83.423C83.2234 80.484 87.0264 77.673 89.3514 73.805C90.7434 71.495 91.4704 68.839 91.4494 66.135C91.4104 59.102 86.4644 52.407 78.9904 51.203Z" fill="url(#paint0_linear_1264_6499)">
</path>
<defs><linearGradient id="paint0_linear_1264_6499" x1="13.4704" y1="61.867" x2="179.59" y2="170.962" gradientUnits="userSpaceOnUse"><stop stop-color="#11A97D"></stop><stop offset="1" stop-color="#6610F2"></stop></linearGradient></defs></svg>